<svg width="38" height="33" viewBox="0 0 38 33" fill="none" xmlns="http://www.w3.org/2000/svg">
<path d="M33.7333 3.68332C32.8821 2.83166 31.8714 2.15607 30.7589 1.69513C29.6465 1.23419 28.4541 0.996948 27.25 0.996948C26.0459 0.996948 24.8535 1.23419 23.7411 1.69513C22.6286 2.15607 21.6179 2.83166 20.7667 3.68332L19 5.44999L17.2333 3.68332C15.5138 1.96384 13.1817 0.99784 10.75 0.99784C8.31827 0.99784 5.98615 1.96384 4.26666 3.68332C2.54717 5.40281 1.58118 7.73494 1.58118 10.1667C1.58118 12.5984 2.54717 14.9305 4.26666 16.65L6.03333 18.4167L19 31.3833L31.9667 18.4167L33.7333 16.65C34.585 15.7987 35.2606 14.788 35.7215 13.6756C36.1825 12.5632 36.4197 11.3708 36.4197 10.1667C36.4197 8.96251 36.1825 7.77016 35.7215 6.65773C35.2606 5.5453 34.585 4.53458 33.7333 3.68332V3.68332Z" stroke="#100C46" stroke-width="2" stroke-linecap="round" stroke-linejoin="round"/>
</svg>
