<svg width="92" height="40" viewBox="0 0 92 40" fill="none" xmlns="http://www.w3.org/2000/svg">
<path d="M51.328 17V5.8H55.104C56.0747 5.8 56.9013 5.96 57.584 6.28C58.2667 6.59467 58.8187 7.02133 59.24 7.56C59.6667 8.09333 59.976 8.69333 60.168 9.36C60.3653 10.0213 60.464 10.7013 60.464 11.4C60.464 12.04 60.3707 12.688 60.184 13.344C60.0027 14 59.704 14.6053 59.288 15.16C58.872 15.7093 58.3147 16.1547 57.616 16.496C56.9227 16.832 56.064 17 55.04 17H51.328ZM53.4 15.032H55.256C55.8267 15.032 56.3067 14.9253 56.696 14.712C57.0853 14.4933 57.3973 14.208 57.632 13.856C57.872 13.4987 58.0453 13.1067 58.152 12.68C58.264 12.248 58.32 11.8213 58.32 11.4C58.32 10.952 58.264 10.512 58.152 10.08C58.04 9.648 57.8667 9.256 57.632 8.904C57.3973 8.552 57.0987 8.272 56.736 8.064C56.3733 7.856 55.9387 7.752 55.432 7.752H53.4V15.032ZM62.6249 17V5.8H70.1929V7.768H64.6969V10.232H67.9529V12.2H64.6969V15.016H70.5289V17H62.6249ZM72.5468 17V5.8H80.1148V7.768H74.6188V10.232H77.8748V12.2H74.6188V15.016H80.4508V17H72.5468ZM82.4686 17V5.8H87.1966C88.1406 5.8 88.89 5.97333 89.4446 6.32C89.9993 6.66133 90.3966 7.10133 90.6366 7.64C90.8766 8.17333 90.9966 8.73067 90.9966 9.312C90.9966 9.71733 90.9246 10.128 90.7806 10.544C90.642 10.9547 90.4206 11.3333 90.1166 11.68C89.818 12.0213 89.426 12.2987 88.9406 12.512C88.4606 12.72 87.8793 12.824 87.1966 12.824H84.5406V17H82.4686ZM84.5406 10.872H87.2926C87.6766 10.872 87.9833 10.7947 88.2126 10.64C88.4473 10.48 88.6153 10.28 88.7166 10.04C88.818 9.8 88.8686 9.55733 88.8686 9.312C88.8686 9.088 88.8206 8.856 88.7246 8.616C88.634 8.37067 88.474 8.16533 88.2446 8C88.0153 7.83467 87.698 7.752 87.2926 7.752H84.5406V10.872Z" fill="white"/>
<path d="M57.9746 31.6348C57.9746 32.5996 57.7988 33.4062 57.4473 34.0547C57.0957 34.6992 56.5859 35.1855 55.918 35.5137C55.2539 35.8379 54.4473 36 53.498 36H51.1719V27.4336H53.7559C54.627 27.4336 55.377 27.5938 56.0059 27.9141C56.6348 28.2305 57.1191 28.7012 57.459 29.3262C57.8027 29.9473 57.9746 30.7168 57.9746 31.6348ZM56.9258 31.6699C56.9258 30.9004 56.7969 30.2656 56.5391 29.7656C56.2852 29.2656 55.9102 28.8945 55.4141 28.6523C54.9219 28.4062 54.3184 28.2832 53.6035 28.2832H52.168V35.1445H53.3809C54.5605 35.1445 55.4453 34.8535 56.0352 34.2715C56.6289 33.6895 56.9258 32.8223 56.9258 31.6699ZM62.1348 29.4727C62.9004 29.4727 63.4688 29.6445 63.8398 29.9883C64.2109 30.332 64.3965 30.8809 64.3965 31.6348V36H63.6875L63.5 35.0508H63.4531C63.2734 35.2852 63.0859 35.4824 62.8906 35.6426C62.6953 35.7988 62.4688 35.918 62.2109 36C61.957 36.0781 61.6445 36.1172 61.2734 36.1172C60.8828 36.1172 60.5352 36.0488 60.2305 35.9121C59.9297 35.7754 59.6914 35.5684 59.5156 35.291C59.3438 35.0137 59.2578 34.6621 59.2578 34.2363C59.2578 33.5957 59.5117 33.1035 60.0195 32.7598C60.5273 32.416 61.3008 32.2285 62.3398 32.1973L63.4473 32.1504V31.7578C63.4473 31.2031 63.3281 30.8145 63.0898 30.5918C62.8516 30.3691 62.5156 30.2578 62.082 30.2578C61.7461 30.2578 61.4258 30.3066 61.1211 30.4043C60.8164 30.502 60.5273 30.6172 60.2539 30.75L59.9551 30.0117C60.2441 29.8633 60.5762 29.7363 60.9512 29.6309C61.3262 29.5254 61.7207 29.4727 62.1348 29.4727ZM63.4355 32.8359L62.457 32.877C61.6562 32.9082 61.0918 33.0391 60.7637 33.2695C60.4355 33.5 60.2715 33.8262 60.2715 34.248C60.2715 34.6152 60.3828 34.8867 60.6055 35.0625C60.8281 35.2383 61.123 35.3262 61.4902 35.3262C62.0605 35.3262 62.5273 35.168 62.8906 34.8516C63.2539 34.5352 63.4355 34.0605 63.4355 33.4277V32.8359ZM70.5547 34.2422C70.5547 34.6523 70.4512 34.998 70.2441 35.2793C70.041 35.5566 69.748 35.7656 69.3652 35.9062C68.9863 36.0469 68.5332 36.1172 68.0059 36.1172C67.5566 36.1172 67.168 36.082 66.8398 36.0117C66.5117 35.9414 66.2246 35.8418 65.9785 35.7129V34.8164C66.2402 34.9453 66.5527 35.0625 66.916 35.168C67.2793 35.2734 67.6504 35.3262 68.0293 35.3262C68.584 35.3262 68.9863 35.2363 69.2363 35.0566C69.4863 34.877 69.6113 34.6328 69.6113 34.3242C69.6113 34.1484 69.5605 33.9941 69.459 33.8613C69.3613 33.7246 69.1953 33.5938 68.9609 33.4688C68.7266 33.3398 68.4023 33.1992 67.9883 33.0469C67.5781 32.8906 67.2227 32.7363 66.9219 32.584C66.625 32.4277 66.3945 32.2383 66.2305 32.0156C66.0703 31.793 65.9902 31.5039 65.9902 31.1484C65.9902 30.6055 66.209 30.1895 66.6465 29.9004C67.0879 29.6074 67.666 29.4609 68.3809 29.4609C68.7676 29.4609 69.1289 29.5 69.4648 29.5781C69.8047 29.6523 70.1211 29.7539 70.4141 29.8828L70.0859 30.6621C69.8203 30.5488 69.5371 30.4531 69.2363 30.375C68.9355 30.2969 68.6289 30.2578 68.3164 30.2578C67.8672 30.2578 67.5215 30.332 67.2793 30.4805C67.041 30.6289 66.9219 30.832 66.9219 31.0898C66.9219 31.2891 66.9766 31.4531 67.0859 31.582C67.1992 31.7109 67.3789 31.832 67.625 31.9453C67.8711 32.0586 68.1953 32.1914 68.5977 32.3438C69 32.4922 69.3477 32.6465 69.6406 32.8066C69.9336 32.9629 70.1582 33.1543 70.3145 33.3809C70.4746 33.6035 70.5547 33.8906 70.5547 34.2422ZM73.0918 26.8828V29.6074C73.0918 29.7637 73.0879 29.9219 73.0801 30.082C73.0723 30.2383 73.0586 30.3828 73.0391 30.5156H73.1035C73.2363 30.2891 73.4043 30.0996 73.6074 29.9473C73.8145 29.791 74.0488 29.6738 74.3105 29.5957C74.5723 29.5137 74.8496 29.4727 75.1426 29.4727C75.6582 29.4727 76.0879 29.5547 76.4316 29.7188C76.7793 29.8828 77.0391 30.1367 77.2109 30.4805C77.3867 30.8242 77.4746 31.2695 77.4746 31.8164V36H76.5137V31.8809C76.5137 31.3457 76.3906 30.9453 76.1445 30.6797C75.9023 30.4141 75.5293 30.2812 75.0254 30.2812C74.5488 30.2812 74.168 30.373 73.8828 30.5566C73.6016 30.7363 73.3984 31.002 73.2734 31.3535C73.1523 31.7051 73.0918 32.1348 73.0918 32.6426V36H72.1191V26.8828H73.0918Z" fill="white"/>
<rect width="40" height="40" fill="white"/>
<path d="M10 11H19.5C24.7467 11 29 15.2533 29 20.5C29 25.7467 24.7467 30 19.5 30H10V11Z" fill="#6257FE"/>
</svg>
